<mxfile host="Electron" agent="Mozilla/5.0 (Macintosh; Intel Mac OS X 10_15_7) AppleWebKit/537.36 (KHTML, like Gecko) draw.io/24.7.8 Chrome/128.0.6613.36 Electron/32.0.1 Safari/537.36" version="24.7.8">
  <diagram name="Layout" id="GQeA6netlnu50gkwbCvQ">
    <mxGraphModel dx="1130" dy="754" grid="1" gridSize="5" guides="1" tooltips="1" connect="1" arrows="1" fold="1" page="1" pageScale="1" pageWidth="1100" pageHeight="850" math="0" shadow="0">
      <root>
        <mxCell id="0" />
        <mxCell id="1" parent="0" />
        <mxCell id="CSCwe7veVIPQqrVKY5N4-8" value="" style="rounded=0;whiteSpace=wrap;html=1;fillColor=none;gradientColor=none;fillStyle=auto;" vertex="1" parent="1">
          <mxGeometry x="80" y="475" width="940" height="200" as="geometry" />
        </mxCell>
        <mxCell id="CSCwe7veVIPQqrVKY5N4-1" value="" style="rounded=0;whiteSpace=wrap;html=1;fillColor=none;gradientColor=none;fillStyle=auto;" vertex="1" parent="1">
          <mxGeometry x="80" y="175" width="940" height="200" as="geometry" />
        </mxCell>
        <mxCell id="CSCwe7veVIPQqrVKY5N4-5" value="Arduino Nano MCU" style="rounded=0;whiteSpace=wrap;html=1;" vertex="1" parent="1">
          <mxGeometry x="90" y="245" width="220" height="60" as="geometry" />
        </mxCell>
        <mxCell id="CSCwe7veVIPQqrVKY5N4-6" value="" style="rounded=0;whiteSpace=wrap;html=1;" vertex="1" parent="1">
          <mxGeometry x="85" y="180" width="115" height="10" as="geometry" />
        </mxCell>
        <mxCell id="CSCwe7veVIPQqrVKY5N4-12" value="" style="rounded=0;whiteSpace=wrap;html=1;" vertex="1" parent="1">
          <mxGeometry x="85" y="195" width="115" height="10" as="geometry" />
        </mxCell>
        <mxCell id="CSCwe7veVIPQqrVKY5N4-13" value="3.3V" style="text;html=1;align=left;verticalAlign=middle;whiteSpace=wrap;rounded=0;fontSize=6;" vertex="1" parent="1">
          <mxGeometry x="205" y="180" width="20" height="10" as="geometry" />
        </mxCell>
        <mxCell id="CSCwe7veVIPQqrVKY5N4-14" value="GND" style="text;html=1;align=left;verticalAlign=middle;whiteSpace=wrap;rounded=0;fontSize=6;" vertex="1" parent="1">
          <mxGeometry x="205" y="195" width="20" height="10" as="geometry" />
        </mxCell>
        <mxCell id="CSCwe7veVIPQqrVKY5N4-15" value="" style="rounded=0;whiteSpace=wrap;html=1;" vertex="1" parent="1">
          <mxGeometry x="85" y="360" width="115" height="10" as="geometry" />
        </mxCell>
        <mxCell id="CSCwe7veVIPQqrVKY5N4-16" value="" style="rounded=0;whiteSpace=wrap;html=1;" vertex="1" parent="1">
          <mxGeometry x="85" y="345" width="115" height="10" as="geometry" />
        </mxCell>
        <mxCell id="CSCwe7veVIPQqrVKY5N4-17" value="GND" style="text;html=1;align=left;verticalAlign=middle;whiteSpace=wrap;rounded=0;fontSize=6;" vertex="1" parent="1">
          <mxGeometry x="205" y="360" width="20" height="10" as="geometry" />
        </mxCell>
        <mxCell id="CSCwe7veVIPQqrVKY5N4-18" value="5V" style="text;html=1;align=left;verticalAlign=middle;whiteSpace=wrap;rounded=0;fontSize=6;" vertex="1" parent="1">
          <mxGeometry x="205" y="345" width="20" height="10" as="geometry" />
        </mxCell>
        <mxCell id="CSCwe7veVIPQqrVKY5N4-30" value="" style="group" vertex="1" connectable="0" parent="1">
          <mxGeometry x="340" y="295" width="100" height="30" as="geometry" />
        </mxCell>
        <mxCell id="CSCwe7veVIPQqrVKY5N4-28" value="" style="group" vertex="1" connectable="0" parent="CSCwe7veVIPQqrVKY5N4-30">
          <mxGeometry width="100" height="10" as="geometry" />
        </mxCell>
        <mxCell id="CSCwe7veVIPQqrVKY5N4-20" value="3.3V" style="rounded=0;whiteSpace=wrap;html=1;fontSize=6;" vertex="1" parent="CSCwe7veVIPQqrVKY5N4-28">
          <mxGeometry width="20" height="10" as="geometry" />
        </mxCell>
        <mxCell id="CSCwe7veVIPQqrVKY5N4-21" value="5V" style="rounded=0;whiteSpace=wrap;html=1;fontSize=6;" vertex="1" parent="CSCwe7veVIPQqrVKY5N4-28">
          <mxGeometry x="20" width="20" height="10" as="geometry" />
        </mxCell>
        <mxCell id="CSCwe7veVIPQqrVKY5N4-22" value="GND" style="rounded=0;whiteSpace=wrap;html=1;fontSize=6;" vertex="1" parent="CSCwe7veVIPQqrVKY5N4-28">
          <mxGeometry x="40" width="20" height="10" as="geometry" />
        </mxCell>
        <mxCell id="CSCwe7veVIPQqrVKY5N4-24" value="DAT" style="rounded=0;whiteSpace=wrap;html=1;fontSize=6;" vertex="1" parent="CSCwe7veVIPQqrVKY5N4-28">
          <mxGeometry x="60" width="20" height="10" as="geometry" />
        </mxCell>
        <mxCell id="CSCwe7veVIPQqrVKY5N4-26" value="CLK" style="rounded=0;whiteSpace=wrap;html=1;fontSize=6;" vertex="1" parent="CSCwe7veVIPQqrVKY5N4-28">
          <mxGeometry x="80" width="20" height="10" as="geometry" />
        </mxCell>
        <mxCell id="CSCwe7veVIPQqrVKY5N4-29" value="I2C Connector" style="text;html=1;align=center;verticalAlign=middle;whiteSpace=wrap;rounded=0;fontSize=8;" vertex="1" parent="CSCwe7veVIPQqrVKY5N4-30">
          <mxGeometry y="10" width="100" height="20" as="geometry" />
        </mxCell>
        <mxCell id="CSCwe7veVIPQqrVKY5N4-31" value="" style="group" vertex="1" connectable="0" parent="1">
          <mxGeometry x="85" y="485" width="100" height="30" as="geometry" />
        </mxCell>
        <mxCell id="CSCwe7veVIPQqrVKY5N4-32" value="" style="group" vertex="1" connectable="0" parent="CSCwe7veVIPQqrVKY5N4-31">
          <mxGeometry width="100" height="10" as="geometry" />
        </mxCell>
        <mxCell id="CSCwe7veVIPQqrVKY5N4-33" value="3.3V" style="rounded=0;whiteSpace=wrap;html=1;fontSize=6;" vertex="1" parent="CSCwe7veVIPQqrVKY5N4-32">
          <mxGeometry width="20" height="10" as="geometry" />
        </mxCell>
        <mxCell id="CSCwe7veVIPQqrVKY5N4-34" value="5V" style="rounded=0;whiteSpace=wrap;html=1;fontSize=6;" vertex="1" parent="CSCwe7veVIPQqrVKY5N4-32">
          <mxGeometry x="20" width="20" height="10" as="geometry" />
        </mxCell>
        <mxCell id="CSCwe7veVIPQqrVKY5N4-35" value="GND" style="rounded=0;whiteSpace=wrap;html=1;fontSize=6;" vertex="1" parent="CSCwe7veVIPQqrVKY5N4-32">
          <mxGeometry x="40" width="20" height="10" as="geometry" />
        </mxCell>
        <mxCell id="CSCwe7veVIPQqrVKY5N4-36" value="DAT" style="rounded=0;whiteSpace=wrap;html=1;fontSize=6;" vertex="1" parent="CSCwe7veVIPQqrVKY5N4-32">
          <mxGeometry x="60" width="20" height="10" as="geometry" />
        </mxCell>
        <mxCell id="CSCwe7veVIPQqrVKY5N4-37" value="CLK" style="rounded=0;whiteSpace=wrap;html=1;fontSize=6;" vertex="1" parent="CSCwe7veVIPQqrVKY5N4-32">
          <mxGeometry x="80" width="20" height="10" as="geometry" />
        </mxCell>
        <mxCell id="CSCwe7veVIPQqrVKY5N4-38" value="I2C Connector" style="text;html=1;align=center;verticalAlign=middle;whiteSpace=wrap;rounded=0;fontSize=8;" vertex="1" parent="CSCwe7veVIPQqrVKY5N4-31">
          <mxGeometry y="10" width="100" height="20" as="geometry" />
        </mxCell>
        <mxCell id="CSCwe7veVIPQqrVKY5N4-48" value="" style="group" vertex="1" connectable="0" parent="1">
          <mxGeometry x="85" y="635" width="100" height="30" as="geometry" />
        </mxCell>
        <mxCell id="CSCwe7veVIPQqrVKY5N4-40" value="" style="group" vertex="1" connectable="0" parent="CSCwe7veVIPQqrVKY5N4-48">
          <mxGeometry y="20" width="100" height="10" as="geometry" />
        </mxCell>
        <mxCell id="CSCwe7veVIPQqrVKY5N4-41" value="3.3V" style="rounded=0;whiteSpace=wrap;html=1;fontSize=6;" vertex="1" parent="CSCwe7veVIPQqrVKY5N4-40">
          <mxGeometry width="20" height="10" as="geometry" />
        </mxCell>
        <mxCell id="CSCwe7veVIPQqrVKY5N4-42" value="5V" style="rounded=0;whiteSpace=wrap;html=1;fontSize=6;" vertex="1" parent="CSCwe7veVIPQqrVKY5N4-40">
          <mxGeometry x="20" width="20" height="10" as="geometry" />
        </mxCell>
        <mxCell id="CSCwe7veVIPQqrVKY5N4-43" value="GND" style="rounded=0;whiteSpace=wrap;html=1;fontSize=6;" vertex="1" parent="CSCwe7veVIPQqrVKY5N4-40">
          <mxGeometry x="40" width="20" height="10" as="geometry" />
        </mxCell>
        <mxCell id="CSCwe7veVIPQqrVKY5N4-44" value="DAT" style="rounded=0;whiteSpace=wrap;html=1;fontSize=6;" vertex="1" parent="CSCwe7veVIPQqrVKY5N4-40">
          <mxGeometry x="60" width="20" height="10" as="geometry" />
        </mxCell>
        <mxCell id="CSCwe7veVIPQqrVKY5N4-45" value="CLK" style="rounded=0;whiteSpace=wrap;html=1;fontSize=6;" vertex="1" parent="CSCwe7veVIPQqrVKY5N4-40">
          <mxGeometry x="80" width="20" height="10" as="geometry" />
        </mxCell>
        <mxCell id="CSCwe7veVIPQqrVKY5N4-46" value="I2C Connector" style="text;html=1;align=center;verticalAlign=middle;whiteSpace=wrap;rounded=0;fontSize=8;" vertex="1" parent="CSCwe7veVIPQqrVKY5N4-48">
          <mxGeometry width="100" height="20" as="geometry" />
        </mxCell>
        <mxCell id="CSCwe7veVIPQqrVKY5N4-60" value="" style="group" vertex="1" connectable="0" parent="1">
          <mxGeometry x="185" y="485" width="50" height="30" as="geometry" />
        </mxCell>
        <mxCell id="CSCwe7veVIPQqrVKY5N4-55" value="I/O" style="rounded=0;whiteSpace=wrap;html=1;fontSize=6;" vertex="1" parent="CSCwe7veVIPQqrVKY5N4-60">
          <mxGeometry x="15" width="20" height="10" as="geometry" />
        </mxCell>
        <mxCell id="CSCwe7veVIPQqrVKY5N4-59" value="I/O Jumper" style="text;html=1;align=center;verticalAlign=middle;whiteSpace=wrap;rounded=0;fontSize=8;" vertex="1" parent="CSCwe7veVIPQqrVKY5N4-60">
          <mxGeometry y="10" width="50" height="20" as="geometry" />
        </mxCell>
        <mxCell id="CSCwe7veVIPQqrVKY5N4-64" value="" style="group" vertex="1" connectable="0" parent="1">
          <mxGeometry x="80" y="520" width="50" height="30" as="geometry" />
        </mxCell>
        <mxCell id="CSCwe7veVIPQqrVKY5N4-50" value="3.3V" style="rounded=0;whiteSpace=wrap;html=1;fontSize=6;" vertex="1" parent="CSCwe7veVIPQqrVKY5N4-64">
          <mxGeometry x="5" width="20" height="10" as="geometry" />
        </mxCell>
        <mxCell id="CSCwe7veVIPQqrVKY5N4-51" value="5V" style="rounded=0;whiteSpace=wrap;html=1;fontSize=6;" vertex="1" parent="CSCwe7veVIPQqrVKY5N4-64">
          <mxGeometry x="25" width="20" height="10" as="geometry" />
        </mxCell>
        <mxCell id="CSCwe7veVIPQqrVKY5N4-53" value="I/O Voltage" style="text;html=1;align=center;verticalAlign=middle;whiteSpace=wrap;rounded=0;fontSize=8;" vertex="1" parent="CSCwe7veVIPQqrVKY5N4-64">
          <mxGeometry y="10" width="50" height="20" as="geometry" />
        </mxCell>
        <mxCell id="CSCwe7veVIPQqrVKY5N4-95" value="" style="group" vertex="1" connectable="0" parent="1">
          <mxGeometry x="855" y="485" width="80" height="30" as="geometry" />
        </mxCell>
        <mxCell id="CSCwe7veVIPQqrVKY5N4-96" value="LCD" style="text;html=1;align=center;verticalAlign=middle;whiteSpace=wrap;rounded=0;fontSize=8;" vertex="1" parent="CSCwe7veVIPQqrVKY5N4-95">
          <mxGeometry y="10" width="80" height="20" as="geometry" />
        </mxCell>
        <mxCell id="CSCwe7veVIPQqrVKY5N4-97" value="GND" style="rounded=0;whiteSpace=wrap;html=1;fontSize=6;" vertex="1" parent="CSCwe7veVIPQqrVKY5N4-95">
          <mxGeometry width="20" height="10" as="geometry" />
        </mxCell>
        <mxCell id="CSCwe7veVIPQqrVKY5N4-98" value="5V" style="rounded=0;whiteSpace=wrap;html=1;fontSize=6;" vertex="1" parent="CSCwe7veVIPQqrVKY5N4-95">
          <mxGeometry x="20" width="20" height="10" as="geometry" />
        </mxCell>
        <mxCell id="CSCwe7veVIPQqrVKY5N4-99" value="DAT" style="rounded=0;whiteSpace=wrap;html=1;fontSize=6;" vertex="1" parent="CSCwe7veVIPQqrVKY5N4-95">
          <mxGeometry x="40" width="20" height="10" as="geometry" />
        </mxCell>
        <mxCell id="CSCwe7veVIPQqrVKY5N4-100" value="CLK" style="rounded=0;whiteSpace=wrap;html=1;fontSize=6;" vertex="1" parent="CSCwe7veVIPQqrVKY5N4-95">
          <mxGeometry x="60" width="20" height="10" as="geometry" />
        </mxCell>
        <mxCell id="CSCwe7veVIPQqrVKY5N4-101" value="" style="group" vertex="1" connectable="0" parent="1">
          <mxGeometry x="935" y="585" width="80" height="30" as="geometry" />
        </mxCell>
        <mxCell id="CSCwe7veVIPQqrVKY5N4-102" value="OLED" style="text;html=1;align=center;verticalAlign=middle;whiteSpace=wrap;rounded=0;fontSize=8;" vertex="1" parent="CSCwe7veVIPQqrVKY5N4-101">
          <mxGeometry y="10" width="80" height="20" as="geometry" />
        </mxCell>
        <mxCell id="CSCwe7veVIPQqrVKY5N4-103" value="GND" style="rounded=0;whiteSpace=wrap;html=1;fontSize=6;" vertex="1" parent="CSCwe7veVIPQqrVKY5N4-101">
          <mxGeometry width="20" height="10" as="geometry" />
        </mxCell>
        <mxCell id="CSCwe7veVIPQqrVKY5N4-104" value="3.3V" style="rounded=0;whiteSpace=wrap;html=1;fontSize=6;" vertex="1" parent="CSCwe7veVIPQqrVKY5N4-101">
          <mxGeometry x="20" width="20" height="10" as="geometry" />
        </mxCell>
        <mxCell id="CSCwe7veVIPQqrVKY5N4-105" value="CLK" style="rounded=0;whiteSpace=wrap;html=1;fontSize=6;" vertex="1" parent="CSCwe7veVIPQqrVKY5N4-101">
          <mxGeometry x="40" width="20" height="10" as="geometry" />
        </mxCell>
        <mxCell id="CSCwe7veVIPQqrVKY5N4-106" value="DAT" style="rounded=0;whiteSpace=wrap;html=1;fontSize=6;" vertex="1" parent="CSCwe7veVIPQqrVKY5N4-101">
          <mxGeometry x="60" width="20" height="10" as="geometry" />
        </mxCell>
        <mxCell id="CSCwe7veVIPQqrVKY5N4-107" value="" style="group" vertex="1" connectable="0" parent="1">
          <mxGeometry x="855" y="575" width="80" height="30" as="geometry" />
        </mxCell>
        <mxCell id="CSCwe7veVIPQqrVKY5N4-108" value="OLED" style="text;html=1;align=center;verticalAlign=middle;whiteSpace=wrap;rounded=0;fontSize=8;" vertex="1" parent="CSCwe7veVIPQqrVKY5N4-107">
          <mxGeometry y="10" width="80" height="20" as="geometry" />
        </mxCell>
        <mxCell id="CSCwe7veVIPQqrVKY5N4-109" value="GND" style="rounded=0;whiteSpace=wrap;html=1;fontSize=6;" vertex="1" parent="CSCwe7veVIPQqrVKY5N4-107">
          <mxGeometry width="20" height="10" as="geometry" />
        </mxCell>
        <mxCell id="CSCwe7veVIPQqrVKY5N4-110" value="5V" style="rounded=0;whiteSpace=wrap;html=1;fontSize=6;" vertex="1" parent="CSCwe7veVIPQqrVKY5N4-107">
          <mxGeometry x="20" width="20" height="10" as="geometry" />
        </mxCell>
        <mxCell id="CSCwe7veVIPQqrVKY5N4-111" value="CLK" style="rounded=0;whiteSpace=wrap;html=1;fontSize=6;" vertex="1" parent="CSCwe7veVIPQqrVKY5N4-107">
          <mxGeometry x="40" width="20" height="10" as="geometry" />
        </mxCell>
        <mxCell id="CSCwe7veVIPQqrVKY5N4-112" value="DAT" style="rounded=0;whiteSpace=wrap;html=1;fontSize=6;" vertex="1" parent="CSCwe7veVIPQqrVKY5N4-107">
          <mxGeometry x="60" width="20" height="10" as="geometry" />
        </mxCell>
        <mxCell id="CSCwe7veVIPQqrVKY5N4-113" value="" style="group" vertex="1" connectable="0" parent="1">
          <mxGeometry x="300" y="485" width="100" height="30" as="geometry" />
        </mxCell>
        <mxCell id="CSCwe7veVIPQqrVKY5N4-114" value="" style="group" vertex="1" connectable="0" parent="CSCwe7veVIPQqrVKY5N4-113">
          <mxGeometry width="100" height="10" as="geometry" />
        </mxCell>
        <mxCell id="CSCwe7veVIPQqrVKY5N4-115" value="I/O" style="rounded=0;whiteSpace=wrap;html=1;fontSize=6;" vertex="1" parent="CSCwe7veVIPQqrVKY5N4-114">
          <mxGeometry width="20" height="10" as="geometry" />
        </mxCell>
        <mxCell id="CSCwe7veVIPQqrVKY5N4-116" value="5V" style="rounded=0;whiteSpace=wrap;html=1;fontSize=6;" vertex="1" parent="CSCwe7veVIPQqrVKY5N4-114">
          <mxGeometry x="20" width="20" height="10" as="geometry" />
        </mxCell>
        <mxCell id="CSCwe7veVIPQqrVKY5N4-117" value="GND" style="rounded=0;whiteSpace=wrap;html=1;fontSize=6;" vertex="1" parent="CSCwe7veVIPQqrVKY5N4-114">
          <mxGeometry x="40" width="20" height="10" as="geometry" />
        </mxCell>
        <mxCell id="CSCwe7veVIPQqrVKY5N4-118" value="DAT" style="rounded=0;whiteSpace=wrap;html=1;fontSize=6;" vertex="1" parent="CSCwe7veVIPQqrVKY5N4-114">
          <mxGeometry x="60" width="20" height="10" as="geometry" />
        </mxCell>
        <mxCell id="CSCwe7veVIPQqrVKY5N4-119" value="CLK" style="rounded=0;whiteSpace=wrap;html=1;fontSize=6;" vertex="1" parent="CSCwe7veVIPQqrVKY5N4-114">
          <mxGeometry x="80" width="20" height="10" as="geometry" />
        </mxCell>
        <mxCell id="CSCwe7veVIPQqrVKY5N4-120" value="LED" style="text;html=1;align=center;verticalAlign=middle;whiteSpace=wrap;rounded=0;fontSize=8;" vertex="1" parent="CSCwe7veVIPQqrVKY5N4-113">
          <mxGeometry y="10" width="100" height="20" as="geometry" />
        </mxCell>
        <mxCell id="CSCwe7veVIPQqrVKY5N4-121" value="" style="group" vertex="1" connectable="0" parent="1">
          <mxGeometry x="580" y="485" width="100" height="30" as="geometry" />
        </mxCell>
        <mxCell id="CSCwe7veVIPQqrVKY5N4-122" value="" style="group" vertex="1" connectable="0" parent="CSCwe7veVIPQqrVKY5N4-121">
          <mxGeometry width="100" height="10" as="geometry" />
        </mxCell>
        <mxCell id="CSCwe7veVIPQqrVKY5N4-123" value="I/O" style="rounded=0;whiteSpace=wrap;html=1;fontSize=6;" vertex="1" parent="CSCwe7veVIPQqrVKY5N4-122">
          <mxGeometry width="20" height="10" as="geometry" />
        </mxCell>
        <mxCell id="CSCwe7veVIPQqrVKY5N4-124" value="5V" style="rounded=0;whiteSpace=wrap;html=1;fontSize=6;" vertex="1" parent="CSCwe7veVIPQqrVKY5N4-122">
          <mxGeometry x="20" width="20" height="10" as="geometry" />
        </mxCell>
        <mxCell id="CSCwe7veVIPQqrVKY5N4-125" value="GND" style="rounded=0;whiteSpace=wrap;html=1;fontSize=6;" vertex="1" parent="CSCwe7veVIPQqrVKY5N4-122">
          <mxGeometry x="40" width="20" height="10" as="geometry" />
        </mxCell>
        <mxCell id="CSCwe7veVIPQqrVKY5N4-126" value="DAT" style="rounded=0;whiteSpace=wrap;html=1;fontSize=6;" vertex="1" parent="CSCwe7veVIPQqrVKY5N4-122">
          <mxGeometry x="60" width="20" height="10" as="geometry" />
        </mxCell>
        <mxCell id="CSCwe7veVIPQqrVKY5N4-127" value="CLK" style="rounded=0;whiteSpace=wrap;html=1;fontSize=6;" vertex="1" parent="CSCwe7veVIPQqrVKY5N4-122">
          <mxGeometry x="80" width="20" height="10" as="geometry" />
        </mxCell>
        <mxCell id="CSCwe7veVIPQqrVKY5N4-128" value="LED" style="text;html=1;align=center;verticalAlign=middle;whiteSpace=wrap;rounded=0;fontSize=8;" vertex="1" parent="CSCwe7veVIPQqrVKY5N4-121">
          <mxGeometry y="10" width="100" height="20" as="geometry" />
        </mxCell>
        <mxCell id="CSCwe7veVIPQqrVKY5N4-139" value="" style="group" vertex="1" connectable="0" parent="1">
          <mxGeometry x="300" y="635" width="100" height="30" as="geometry" />
        </mxCell>
        <mxCell id="CSCwe7veVIPQqrVKY5N4-140" value="" style="group" vertex="1" connectable="0" parent="CSCwe7veVIPQqrVKY5N4-139">
          <mxGeometry y="20" width="100" height="10" as="geometry" />
        </mxCell>
        <mxCell id="CSCwe7veVIPQqrVKY5N4-141" value="I/O" style="rounded=0;whiteSpace=wrap;html=1;fontSize=6;" vertex="1" parent="CSCwe7veVIPQqrVKY5N4-140">
          <mxGeometry width="20" height="10" as="geometry" />
        </mxCell>
        <mxCell id="CSCwe7veVIPQqrVKY5N4-142" value="5V" style="rounded=0;whiteSpace=wrap;html=1;fontSize=6;" vertex="1" parent="CSCwe7veVIPQqrVKY5N4-140">
          <mxGeometry x="20" width="20" height="10" as="geometry" />
        </mxCell>
        <mxCell id="CSCwe7veVIPQqrVKY5N4-143" value="GND" style="rounded=0;whiteSpace=wrap;html=1;fontSize=6;" vertex="1" parent="CSCwe7veVIPQqrVKY5N4-140">
          <mxGeometry x="40" width="20" height="10" as="geometry" />
        </mxCell>
        <mxCell id="CSCwe7veVIPQqrVKY5N4-144" value="DAT" style="rounded=0;whiteSpace=wrap;html=1;fontSize=6;" vertex="1" parent="CSCwe7veVIPQqrVKY5N4-140">
          <mxGeometry x="60" width="20" height="10" as="geometry" />
        </mxCell>
        <mxCell id="CSCwe7veVIPQqrVKY5N4-145" value="CLK" style="rounded=0;whiteSpace=wrap;html=1;fontSize=6;" vertex="1" parent="CSCwe7veVIPQqrVKY5N4-140">
          <mxGeometry x="80" width="20" height="10" as="geometry" />
        </mxCell>
        <mxCell id="CSCwe7veVIPQqrVKY5N4-146" value="LED" style="text;html=1;align=center;verticalAlign=middle;whiteSpace=wrap;rounded=0;fontSize=8;" vertex="1" parent="CSCwe7veVIPQqrVKY5N4-139">
          <mxGeometry width="100" height="20" as="geometry" />
        </mxCell>
        <mxCell id="CSCwe7veVIPQqrVKY5N4-147" value="" style="group" vertex="1" connectable="0" parent="1">
          <mxGeometry x="580" y="635" width="100" height="30" as="geometry" />
        </mxCell>
        <mxCell id="CSCwe7veVIPQqrVKY5N4-148" value="" style="group" vertex="1" connectable="0" parent="CSCwe7veVIPQqrVKY5N4-147">
          <mxGeometry y="20" width="100" height="10" as="geometry" />
        </mxCell>
        <mxCell id="CSCwe7veVIPQqrVKY5N4-149" value="I/O" style="rounded=0;whiteSpace=wrap;html=1;fontSize=6;" vertex="1" parent="CSCwe7veVIPQqrVKY5N4-148">
          <mxGeometry width="20" height="10" as="geometry" />
        </mxCell>
        <mxCell id="CSCwe7veVIPQqrVKY5N4-150" value="5V" style="rounded=0;whiteSpace=wrap;html=1;fontSize=6;" vertex="1" parent="CSCwe7veVIPQqrVKY5N4-148">
          <mxGeometry x="20" width="20" height="10" as="geometry" />
        </mxCell>
        <mxCell id="CSCwe7veVIPQqrVKY5N4-151" value="GND" style="rounded=0;whiteSpace=wrap;html=1;fontSize=6;" vertex="1" parent="CSCwe7veVIPQqrVKY5N4-148">
          <mxGeometry x="40" width="20" height="10" as="geometry" />
        </mxCell>
        <mxCell id="CSCwe7veVIPQqrVKY5N4-152" value="DAT" style="rounded=0;whiteSpace=wrap;html=1;fontSize=6;" vertex="1" parent="CSCwe7veVIPQqrVKY5N4-148">
          <mxGeometry x="60" width="20" height="10" as="geometry" />
        </mxCell>
        <mxCell id="CSCwe7veVIPQqrVKY5N4-153" value="CLK" style="rounded=0;whiteSpace=wrap;html=1;fontSize=6;" vertex="1" parent="CSCwe7veVIPQqrVKY5N4-148">
          <mxGeometry x="80" width="20" height="10" as="geometry" />
        </mxCell>
        <mxCell id="CSCwe7veVIPQqrVKY5N4-154" value="LED" style="text;html=1;align=center;verticalAlign=middle;whiteSpace=wrap;rounded=0;fontSize=8;" vertex="1" parent="CSCwe7veVIPQqrVKY5N4-147">
          <mxGeometry width="100" height="20" as="geometry" />
        </mxCell>
        <mxCell id="CSCwe7veVIPQqrVKY5N4-155" value="" style="group" vertex="1" connectable="0" parent="1">
          <mxGeometry x="555" y="185" width="50" height="30" as="geometry" />
        </mxCell>
        <mxCell id="CSCwe7veVIPQqrVKY5N4-156" value="RX" style="rounded=0;whiteSpace=wrap;html=1;fontSize=6;" vertex="1" parent="CSCwe7veVIPQqrVKY5N4-155">
          <mxGeometry x="5" width="20" height="10" as="geometry" />
        </mxCell>
        <mxCell id="CSCwe7veVIPQqrVKY5N4-157" value="TX" style="rounded=0;whiteSpace=wrap;html=1;fontSize=6;" vertex="1" parent="CSCwe7veVIPQqrVKY5N4-155">
          <mxGeometry x="25" width="20" height="10" as="geometry" />
        </mxCell>
        <mxCell id="CSCwe7veVIPQqrVKY5N4-158" value="D7/D8 Pins" style="text;html=1;align=center;verticalAlign=middle;whiteSpace=wrap;rounded=0;fontSize=8;" vertex="1" parent="CSCwe7veVIPQqrVKY5N4-155">
          <mxGeometry y="10" width="50" height="20" as="geometry" />
        </mxCell>
        <mxCell id="CSCwe7veVIPQqrVKY5N4-160" value="" style="group" vertex="1" connectable="0" parent="1">
          <mxGeometry x="915" y="185" width="100" height="30" as="geometry" />
        </mxCell>
        <mxCell id="CSCwe7veVIPQqrVKY5N4-161" value="" style="group" vertex="1" connectable="0" parent="CSCwe7veVIPQqrVKY5N4-160">
          <mxGeometry width="100" height="10" as="geometry" />
        </mxCell>
        <mxCell id="CSCwe7veVIPQqrVKY5N4-162" value="GND" style="rounded=0;whiteSpace=wrap;html=1;fontSize=6;" vertex="1" parent="CSCwe7veVIPQqrVKY5N4-161">
          <mxGeometry width="20" height="10" as="geometry" />
        </mxCell>
        <mxCell id="CSCwe7veVIPQqrVKY5N4-163" value="3.3V" style="rounded=0;whiteSpace=wrap;html=1;fontSize=6;" vertex="1" parent="CSCwe7veVIPQqrVKY5N4-161">
          <mxGeometry x="20" width="20" height="10" as="geometry" />
        </mxCell>
        <mxCell id="CSCwe7veVIPQqrVKY5N4-164" value="SW" style="rounded=0;whiteSpace=wrap;html=1;fontSize=6;" vertex="1" parent="CSCwe7veVIPQqrVKY5N4-161">
          <mxGeometry x="40" width="20" height="10" as="geometry" />
        </mxCell>
        <mxCell id="CSCwe7veVIPQqrVKY5N4-165" value="DAT" style="rounded=0;whiteSpace=wrap;html=1;fontSize=6;" vertex="1" parent="CSCwe7veVIPQqrVKY5N4-161">
          <mxGeometry x="60" width="20" height="10" as="geometry" />
        </mxCell>
        <mxCell id="CSCwe7veVIPQqrVKY5N4-166" value="CLK" style="rounded=0;whiteSpace=wrap;html=1;fontSize=6;" vertex="1" parent="CSCwe7veVIPQqrVKY5N4-161">
          <mxGeometry x="80" width="20" height="10" as="geometry" />
        </mxCell>
        <mxCell id="CSCwe7veVIPQqrVKY5N4-167" value="Rotary Encoder" style="text;html=1;align=center;verticalAlign=middle;whiteSpace=wrap;rounded=0;fontSize=8;" vertex="1" parent="CSCwe7veVIPQqrVKY5N4-160">
          <mxGeometry y="10" width="100" height="20" as="geometry" />
        </mxCell>
        <mxCell id="CSCwe7veVIPQqrVKY5N4-168" value="" style="group" vertex="1" connectable="0" parent="1">
          <mxGeometry x="740" y="185" width="80" height="30" as="geometry" />
        </mxCell>
        <mxCell id="CSCwe7veVIPQqrVKY5N4-169" value="GPS" style="text;html=1;align=center;verticalAlign=middle;whiteSpace=wrap;rounded=0;fontSize=8;" vertex="1" parent="CSCwe7veVIPQqrVKY5N4-168">
          <mxGeometry y="10" width="80" height="20" as="geometry" />
        </mxCell>
        <mxCell id="CSCwe7veVIPQqrVKY5N4-170" value="3.3V" style="rounded=0;whiteSpace=wrap;html=1;fontSize=6;" vertex="1" parent="CSCwe7veVIPQqrVKY5N4-168">
          <mxGeometry width="20" height="10" as="geometry" />
        </mxCell>
        <mxCell id="CSCwe7veVIPQqrVKY5N4-171" value="RX" style="rounded=0;whiteSpace=wrap;html=1;fontSize=6;" vertex="1" parent="CSCwe7veVIPQqrVKY5N4-168">
          <mxGeometry x="20" width="20" height="10" as="geometry" />
        </mxCell>
        <mxCell id="CSCwe7veVIPQqrVKY5N4-172" value="TX" style="rounded=0;whiteSpace=wrap;html=1;fontSize=6;" vertex="1" parent="CSCwe7veVIPQqrVKY5N4-168">
          <mxGeometry x="40" width="20" height="10" as="geometry" />
        </mxCell>
        <mxCell id="CSCwe7veVIPQqrVKY5N4-173" value="GND" style="rounded=0;whiteSpace=wrap;html=1;fontSize=6;" vertex="1" parent="CSCwe7veVIPQqrVKY5N4-168">
          <mxGeometry x="60" width="20" height="10" as="geometry" />
        </mxCell>
        <mxCell id="CSCwe7veVIPQqrVKY5N4-174" value="" style="group" vertex="1" connectable="0" parent="1">
          <mxGeometry x="720" y="275" width="100" height="30" as="geometry" />
        </mxCell>
        <mxCell id="CSCwe7veVIPQqrVKY5N4-175" value="" style="group" vertex="1" connectable="0" parent="CSCwe7veVIPQqrVKY5N4-174">
          <mxGeometry width="100" height="10" as="geometry" />
        </mxCell>
        <mxCell id="CSCwe7veVIPQqrVKY5N4-176" value="3.3V" style="rounded=0;whiteSpace=wrap;html=1;fontSize=6;" vertex="1" parent="CSCwe7veVIPQqrVKY5N4-175">
          <mxGeometry width="20" height="10" as="geometry" />
        </mxCell>
        <mxCell id="CSCwe7veVIPQqrVKY5N4-177" value="GND" style="rounded=0;whiteSpace=wrap;html=1;fontSize=6;" vertex="1" parent="CSCwe7veVIPQqrVKY5N4-175">
          <mxGeometry x="20" width="20" height="10" as="geometry" />
        </mxCell>
        <mxCell id="CSCwe7veVIPQqrVKY5N4-178" value="RX" style="rounded=0;whiteSpace=wrap;html=1;fontSize=6;" vertex="1" parent="CSCwe7veVIPQqrVKY5N4-175">
          <mxGeometry x="40" width="20" height="10" as="geometry" />
        </mxCell>
        <mxCell id="CSCwe7veVIPQqrVKY5N4-179" value="TX" style="rounded=0;whiteSpace=wrap;html=1;fontSize=6;" vertex="1" parent="CSCwe7veVIPQqrVKY5N4-175">
          <mxGeometry x="60" width="20" height="10" as="geometry" />
        </mxCell>
        <mxCell id="CSCwe7veVIPQqrVKY5N4-180" value="PSS" style="rounded=0;whiteSpace=wrap;html=1;fontSize=6;fontColor=#B3B3B3;" vertex="1" parent="CSCwe7veVIPQqrVKY5N4-175">
          <mxGeometry x="80" width="20" height="10" as="geometry" />
        </mxCell>
        <mxCell id="CSCwe7veVIPQqrVKY5N4-181" value="GPS" style="text;html=1;align=center;verticalAlign=middle;whiteSpace=wrap;rounded=0;fontSize=8;" vertex="1" parent="CSCwe7veVIPQqrVKY5N4-174">
          <mxGeometry y="10" width="100" height="20" as="geometry" />
        </mxCell>
        <mxCell id="CSCwe7veVIPQqrVKY5N4-182" value="" style="group" vertex="1" connectable="0" parent="1">
          <mxGeometry x="475" y="185" width="50" height="30" as="geometry" />
        </mxCell>
        <mxCell id="CSCwe7veVIPQqrVKY5N4-183" value="RX" style="rounded=0;whiteSpace=wrap;html=1;fontSize=6;" vertex="1" parent="CSCwe7veVIPQqrVKY5N4-182">
          <mxGeometry x="5" width="20" height="10" as="geometry" />
        </mxCell>
        <mxCell id="CSCwe7veVIPQqrVKY5N4-184" value="TX" style="rounded=0;whiteSpace=wrap;html=1;fontSize=6;" vertex="1" parent="CSCwe7veVIPQqrVKY5N4-182">
          <mxGeometry x="25" width="20" height="10" as="geometry" />
        </mxCell>
        <mxCell id="CSCwe7veVIPQqrVKY5N4-185" value="D0/D1 Pins" style="text;html=1;align=center;verticalAlign=middle;whiteSpace=wrap;rounded=0;fontSize=8;" vertex="1" parent="CSCwe7veVIPQqrVKY5N4-182">
          <mxGeometry y="10" width="50" height="20" as="geometry" />
        </mxCell>
        <mxCell id="CSCwe7veVIPQqrVKY5N4-190" value="" style="group" vertex="1" connectable="0" parent="1">
          <mxGeometry x="630" y="185" width="60" height="30" as="geometry" />
        </mxCell>
        <mxCell id="CSCwe7veVIPQqrVKY5N4-187" value="RX" style="rounded=0;whiteSpace=wrap;html=1;fontSize=6;" vertex="1" parent="CSCwe7veVIPQqrVKY5N4-190">
          <mxGeometry x="10" width="20" height="10" as="geometry" />
        </mxCell>
        <mxCell id="CSCwe7veVIPQqrVKY5N4-188" value="TX" style="rounded=0;whiteSpace=wrap;html=1;fontSize=6;" vertex="1" parent="CSCwe7veVIPQqrVKY5N4-190">
          <mxGeometry x="30" width="20" height="10" as="geometry" />
        </mxCell>
        <mxCell id="CSCwe7veVIPQqrVKY5N4-189" value="RX/TX Jumper" style="text;html=1;align=center;verticalAlign=middle;whiteSpace=wrap;rounded=0;fontSize=8;" vertex="1" parent="CSCwe7veVIPQqrVKY5N4-190">
          <mxGeometry y="10" width="60" height="20" as="geometry" />
        </mxCell>
        <mxCell id="CSCwe7veVIPQqrVKY5N4-191" value="" style="endArrow=none;html=1;strokeWidth=1;rounded=0;dashed=1;dashPattern=1 1;entryX=0.5;entryY=1;entryDx=0;entryDy=0;" edge="1" parent="1" target="CSCwe7veVIPQqrVKY5N4-185">
          <mxGeometry width="50" height="50" relative="1" as="geometry">
            <mxPoint x="500" y="235" as="sourcePoint" />
            <mxPoint x="525" y="350" as="targetPoint" />
          </mxGeometry>
        </mxCell>
        <mxCell id="CSCwe7veVIPQqrVKY5N4-194" value="" style="endArrow=none;html=1;strokeWidth=1;rounded=0;dashed=1;dashPattern=1 1;" edge="1" parent="1">
          <mxGeometry width="50" height="50" relative="1" as="geometry">
            <mxPoint x="500" y="235" as="sourcePoint" />
            <mxPoint x="660" y="235" as="targetPoint" />
          </mxGeometry>
        </mxCell>
        <mxCell id="CSCwe7veVIPQqrVKY5N4-195" value="" style="endArrow=none;html=1;strokeWidth=1;rounded=0;dashed=1;dashPattern=1 1;entryX=0.5;entryY=1;entryDx=0;entryDy=0;" edge="1" parent="1" target="CSCwe7veVIPQqrVKY5N4-158">
          <mxGeometry width="50" height="50" relative="1" as="geometry">
            <mxPoint x="580" y="225" as="sourcePoint" />
            <mxPoint x="579.43" y="215" as="targetPoint" />
          </mxGeometry>
        </mxCell>
        <mxCell id="CSCwe7veVIPQqrVKY5N4-196" value="" style="endArrow=none;html=1;strokeWidth=1;rounded=0;dashed=1;dashPattern=1 1;" edge="1" parent="1">
          <mxGeometry width="50" height="50" relative="1" as="geometry">
            <mxPoint x="580" y="225" as="sourcePoint" />
            <mxPoint x="660" y="225" as="targetPoint" />
          </mxGeometry>
        </mxCell>
        <mxCell id="CSCwe7veVIPQqrVKY5N4-197" value="" style="endArrow=none;html=1;strokeWidth=1;rounded=0;dashed=1;dashPattern=1 1;entryX=0.5;entryY=1;entryDx=0;entryDy=0;" edge="1" parent="1" target="CSCwe7veVIPQqrVKY5N4-189">
          <mxGeometry width="50" height="50" relative="1" as="geometry">
            <mxPoint x="660" y="235" as="sourcePoint" />
            <mxPoint x="659.71" y="215" as="targetPoint" />
          </mxGeometry>
        </mxCell>
        <mxCell id="CSCwe7veVIPQqrVKY5N4-199" value="" style="endArrow=none;html=1;strokeWidth=1;rounded=0;dashed=1;dashPattern=1 1;entryX=0.5;entryY=1;entryDx=0;entryDy=0;" edge="1" parent="1" target="CSCwe7veVIPQqrVKY5N4-53">
          <mxGeometry width="50" height="50" relative="1" as="geometry">
            <mxPoint x="105" y="560" as="sourcePoint" />
            <mxPoint x="104.72000000000003" y="550" as="targetPoint" />
          </mxGeometry>
        </mxCell>
        <mxCell id="CSCwe7veVIPQqrVKY5N4-200" value="" style="endArrow=none;html=1;strokeWidth=1;rounded=0;dashed=1;dashPattern=1 1;" edge="1" parent="1">
          <mxGeometry width="50" height="50" relative="1" as="geometry">
            <mxPoint x="210" y="560" as="sourcePoint" />
            <mxPoint x="210" y="515" as="targetPoint" />
          </mxGeometry>
        </mxCell>
        <mxCell id="CSCwe7veVIPQqrVKY5N4-202" value="" style="endArrow=none;html=1;strokeWidth=1;rounded=0;dashed=1;dashPattern=1 1;" edge="1" parent="1">
          <mxGeometry width="50" height="50" relative="1" as="geometry">
            <mxPoint x="210" y="560" as="sourcePoint" />
            <mxPoint x="105" y="560" as="targetPoint" />
          </mxGeometry>
        </mxCell>
        <mxCell id="CSCwe7veVIPQqrVKY5N4-203" value="" style="rounded=0;whiteSpace=wrap;html=1;" vertex="1" parent="1">
          <mxGeometry x="85" y="260" width="20" height="30" as="geometry" />
        </mxCell>
        <mxCell id="CSCwe7veVIPQqrVKY5N4-204" value="" style="pointerEvents=1;verticalLabelPosition=bottom;shadow=0;dashed=0;align=center;html=1;verticalAlign=top;shape=mxgraph.electrical.resistors.resistor_2;rotation=-90;" vertex="1" parent="1">
          <mxGeometry x="832.5" y="297.5" width="37.5" height="6.25" as="geometry" />
        </mxCell>
        <mxCell id="CSCwe7veVIPQqrVKY5N4-205" value="10㏀" style="text;html=1;align=center;verticalAlign=middle;whiteSpace=wrap;rounded=0;fontSize=8;" vertex="1" parent="1">
          <mxGeometry x="838.75" y="320" width="25" height="20" as="geometry" />
        </mxCell>
        <mxCell id="CSCwe7veVIPQqrVKY5N4-208" value="" style="verticalLabelPosition=bottom;shadow=0;dashed=0;align=center;html=1;verticalAlign=top;shape=mxgraph.electrical.opto_electronics.photo_resistor_3;aspect=fixed;" vertex="1" parent="1">
          <mxGeometry x="900" y="291.63" width="20" height="17.99" as="geometry" />
        </mxCell>
        <mxCell id="CSCwe7veVIPQqrVKY5N4-210" value="" style="html=1;shape=mxgraph.electrical.electro-mechanical.pushbutton;aspect=fixed;elSwitchState=off;" vertex="1" parent="1">
          <mxGeometry x="960" y="295.28999999999996" width="40" height="10.67" as="geometry" />
        </mxCell>
        <mxCell id="CSCwe7veVIPQqrVKY5N4-211" value="Dimmer" style="text;html=1;align=center;verticalAlign=middle;whiteSpace=wrap;rounded=0;fontSize=8;" vertex="1" parent="1">
          <mxGeometry x="890" y="315" width="40" height="20" as="geometry" />
        </mxCell>
        <mxCell id="CSCwe7veVIPQqrVKY5N4-212" value="12/24 Selector" style="text;html=1;align=center;verticalAlign=middle;whiteSpace=wrap;rounded=0;fontSize=8;" vertex="1" parent="1">
          <mxGeometry x="950" y="315" width="60" height="20" as="geometry" />
        </mxCell>
        <mxCell id="CSCwe7veVIPQqrVKY5N4-213" value="GPS Clock Custom Breadboard for Arduino Nano MCUs" style="text;html=1;align=center;verticalAlign=middle;whiteSpace=wrap;rounded=0;fontSize=18;" vertex="1" parent="1">
          <mxGeometry x="300" y="40" width="500" height="30" as="geometry" />
        </mxCell>
      </root>
    </mxGraphModel>
  </diagram>
</mxfile>
